<?xml version="1.0" encoding="UTF-8" standalone="no"?>
<!-- Created with Inkscape (http://www.inkscape.org/) -->

<svg
   version="1.1"
   id="svg1"
   width="20.799999"
   height="18.786667"
   viewBox="0 0 20.799999 18.786667"
   xmlns="http://www.w3.org/2000/svg"
   xmlns:svg="http://www.w3.org/2000/svg">
  <defs
     id="defs1" />
  <g
     id="g1">
    <path
       id="path2"
       d="M 12.763,2.133 C 12.76,0.96 11.81,0.01 10.64,0.01 c -1.18,0 -2.13,0.95 -2.13,2.12 0,1.18 0.95,2.13 2.13,2.13 1.17,0 2.12,-0.95 2.12,-2.13"
       style="fill:#8080bc;fill-opacity:1;fill-rule:nonzero;stroke:none"
       transform="matrix(1.3333333,0,0,-1.3333333,0,18.786667)" />
    <path
       id="path3"
       d="m 0.294,8.109 2.831,4.904 C 3.5,13.67 4.21,14.08 4.97,14.08 v 0 h 5.67 c 1.17,0 2.12,-0.95 2.12,-2.13 0,-1.17 -0.95,-2.12 -2.12,-2.12 v 0 H 7.8 C 6.81,9.83 5.89,9.3 5.39,8.44 v 0 L 3.97,5.98 C 3.39,4.96 2.09,4.61 1.07,5.2 c 0,0 0,0 0,0 -1.02,0.59 -1.37,1.89 -0.78,2.91 0,0 0,0 0,0"
       style="fill:#8080bc;fill-opacity:1;fill-rule:nonzero;stroke:none"
       transform="matrix(1.3333333,0,0,-1.3333333,0,18.786667)" />
    <path
       id="path4"
       d="M 3.903,0.293 C 2.89,0.88 2.54,2.18 3.13,3.2 c 0,0 0,0 0,0 v 0 L 5.96,8.1 C 6.34,8.76 7.04,9.17 7.8,9.17 v 0 h 5.67 c 1.18,0 2.13,-0.95 2.13,-2.13 0,-1.17 -0.95,-2.12 -2.13,-2.12 v 0 h -2.84 c -0.99,0 -1.9,-0.53 -2.4,-1.39 v 0 L 6.81,1.07 C 6.22,0.05 4.92,-0.3 3.9,0.29 c 0,0 0,0 0,0"
       style="fill:#8080bc;fill-opacity:1;fill-rule:nonzero;stroke:none"
       transform="matrix(1.3333333,0,0,-1.3333333,0,18.786667)" />
  </g>
</svg>
