<?xml version="1.0" encoding="UTF-8"?>
<svg id="a" width="15.6mm" height="14.07mm" version="1.1" viewBox="0 0 15.6 14.07" xmlns="http://www.w3.org/2000/svg" xmlns:cc="http://creativecommons.org/ns#" xmlns:rdf="http://www.w3.org/1999/02/22-rdf-syntax-ns#">
 <defs>
  <style>.b{stroke-width:0px;}.c{fill:none;stroke:"#8080bc";stroke-miterlimit:10;stroke-width:4.25px;}</style>
 </defs>
 <g fill="#8080bc">
  <path class="b" d="m9.93 7.04c0-1.18-0.95-2.13-2.13-2.13s-2.12 0.95-2.12 2.13 0.95 2.12 2.12 2.12 2.13-0.95 2.13-2.12" vector-effect="non-scaling-stroke" style="-inkscape-stroke:hairline"/>
  <path class="b" d="m15.6 7.04c0-1.18-0.95-2.13-2.13-2.13s-2.12 0.95-2.12 2.13 0.95 2.12 2.12 2.12 2.13-0.95 2.13-2.12" vector-effect="non-scaling-stroke" style="-inkscape-stroke:hairline"/>
  <path class="b" d="m4.26 7.04c0-1.18-0.95-2.13-2.13-2.13-1.18 0-2.13 0.95-2.13 2.13s0.95 2.12 2.12 2.12c1.17 0 2.13-0.95 2.13-2.12" vector-effect="non-scaling-stroke" style="-inkscape-stroke:hairline"/>
  <path class="b" d="m12.76 2.13c0-1.18-0.95-2.13-2.12-2.13s-2.13 0.95-2.13 2.13 0.95 2.12 2.13 2.12 2.12-0.95 2.12-2.12" vector-effect="non-scaling-stroke" style="-inkscape-stroke:hairline"/>
  <path class="b" d="m7.09 2.13c0-1.18-0.95-2.13-2.12-2.13s-2.13 0.95-2.13 2.13 0.95 2.12 2.13 2.12 2.12-0.95 2.12-2.12" vector-effect="non-scaling-stroke" style="-inkscape-stroke:hairline"/>
  <path class="b" d="m12.76 11.95c0-1.18-0.95-2.13-2.12-2.13s-2.13 0.95-2.13 2.13 0.95 2.12 2.13 2.12 2.12-0.95 2.12-2.12" vector-effect="non-scaling-stroke" style="-inkscape-stroke:hairline"/>
  <path class="b" d="m7.09 11.95c0-1.18-0.95-2.13-2.12-2.13s-2.13 0.95-2.13 2.13 0.95 2.12 2.13 2.12 2.12-0.95 2.12-2.12" vector-effect="non-scaling-stroke" style="-inkscape-stroke:hairline"/>
  <rect class="b" x="4.97" y="1.1176e-10" width="5.67" height="4.25" vector-effect="non-scaling-stroke" style="-inkscape-stroke:hairline"/>
  <rect class="b" x="7.8" y="4.91" width="5.67" height="4.25" vector-effect="non-scaling-stroke" style="-inkscape-stroke:hairline"/>
  <rect class="b" transform="rotate(-60)" x="-5.0256" y="3.2384" width="5.67" height="4.25" vector-effect="non-scaling-stroke" style="-inkscape-stroke:hairline"/>
  <rect class="b" transform="rotate(-60)" x="-7.8677" y="8.1539" width="5.67" height="4.25" vector-effect="non-scaling-stroke" style="-inkscape-stroke:hairline"/>
  <path class="c" d="m10.64 7.04c-1.76 0-3.38 0.93-4.25 2.45" stroke="#8080bc"/>
  <path class="c" d="m7.8 2.13c-1.75 0-3.37 0.93-4.25 2.45" stroke="#8080bc"/>
 </g>
 <metadata>
  <rdf:RDF>
   <cc:Work rdf:about=""/>
  </rdf:RDF>
 </metadata>
</svg>
